<?xml version="1.0" encoding="UTF-8" standalone="no"?>
<svg
   width="816"
   height="1056"
   viewBox="0 0 816 1056"
   version="1.1"
   id="svg274"
   sodipodi:docname="bike_lane_categories.svg"
   inkscape:version="1.1.1 (c3084ef, 2021-09-22)"
   xmlns:inkscape="http://www.inkscape.org/namespaces/inkscape"
   xmlns:sodipodi="http://sodipodi.sourceforge.net/DTD/sodipodi-0.dtd"
   xmlns:xlink="http://www.w3.org/1999/xlink"
   xmlns="http://www.w3.org/2000/svg"
   xmlns:svg="http://www.w3.org/2000/svg">
  <sodipodi:namedview
     id="namedview276"
     pagecolor="#505050"
     bordercolor="#ffffff"
     borderopacity="1"
     inkscape:pageshadow="0"
     inkscape:pageopacity="0"
     inkscape:pagecheckerboard="1"
     showgrid="false"
     inkscape:zoom="0.58806818"
     inkscape:cx="407.2657"
     inkscape:cy="528"
     inkscape:window-width="1312"
     inkscape:window-height="847"
     inkscape:window-x="81"
     inkscape:window-y="25"
     inkscape:window-maximized="0"
     inkscape:current-layer="svg274" />
  <defs
     id="defs1294">
    <linearGradient
       gradientTransform="matrix(1.3333333,0,0,-1.3333333,-108.43803,1006.3746)"
       xlink:href="#linearGradient7903"
       id="linearGradient7909"
       gradientUnits="userSpaceOnUse"
       x1="80.803658"
       y1="-30.613503"
       x2="692.39838"
       y2="-30.613503" />
    <linearGradient
       id="linearGradient7903">
      <stop
         style="stop-color:#009edb;stop-opacity:1"
         offset="0"
         id="stop7899" />
      <stop
         id="stop1440"
         offset="0.51546329"
         style="stop-color:#5d6b93;stop-opacity:1" />
      <stop
         style="stop-color:#ed1c24;stop-opacity:1"
         offset="1"
         id="stop7901" />
    </linearGradient>
    <rect
       x="32.309177"
       y="27.207729"
       width="588.36713"
       height="83.323669"
       id="rect2677" />
  </defs>
  <path
     d="M 0,124.8 H 815.70531 V 0 H 0 Z"
     style="fill:#e6e7e8;fill-opacity:1;fill-rule:nonzero;stroke:none;stroke-width:1.33333325"
     id="header_bar" />
  <g
     id="logo_pfb">
    <path
       d="m 745.30758,67.902066 -0.003,-45.771999 0.003,-0.668 c 0.003,-0.46 0.005,-0.921333 -0.003,-1.381333 -0.032,-2.14 -1.632,-3.84 -3.71866,-3.956 -0.90534,-0.04933 -2.06267,-0.04267 -3.20667,-0.024 -0.49467,0.0093 -0.98667,0.01867 -1.47867,0.01867 h -32.05333 l -1.58267,-0.0027 -0.79866,0.0027 c -2.11334,0.01333 -3.79734,1.496 -4.004,3.526666 -0.0507,0.497334 -0.0387,0.966667 -0.0267,1.449334 0.003,0.136 0.007,0.273333 0.007,0.407999 v 47.047999 c 0,1.857334 1.31866,3.476 3.136,3.846667 0.376,0.07733 0.728,0.088 0.99466,0.088 l 8.36534,-0.0093 c 3.03733,0 5.79333,1.673333 7.19466,4.367999 l 3.74134,7.196 3.72666,-7.188 c 1.39867,-2.699999 4.156,-4.377333 7.19867,-4.377333 h 0.001 l 8.24534,0.0027 c 1.848,0 3.23733,-0.82 3.91066,-2.310667 0.372,-0.822666 0.36,-1.657333 0.35067,-2.265333"
       style="fill:#ffffff;fill-opacity:1;fill-rule:nonzero;stroke:none;stroke-width:1.33333325"
       id="path1288" />
    <path
       d="m 739.92878,15.3602 c -0.51867,0 -1.03867,0.0093 -1.55733,0.01733 -0.49334,0.0093 -0.98267,0.01733 -1.47067,0.01733 h -32.05333 l -1.58,-0.0013 -0.80267,0.0013 c -2.49333,0.016 -4.47733,1.773333 -4.72267,4.178666 -0.0547,0.537334 -0.0427,1.033334 -0.032,1.470667 l 10e-4,0.04667 c 0.003,0.137333 0.007,0.276 0.007,0.412 v 47.047998 c 0,2.2 1.56267,4.116 3.71467,4.557334 0.44,0.08933 0.84,0.101333 1.14,0.101333 0.0573,0 0.19733,-0.0027 0.32933,-0.004 0.10534,-0.0013 0.20667,-0.0027 0.244,-0.0027 l 7.79067,-0.0027 c 2.76667,0 5.27733,1.524 6.55333,3.977333 l 3.42,6.578666 0.96534,1.856 0.96266,-1.857333 3.404,-6.569333 c 1.27467,-2.458667 3.78667,-3.986667 6.556,-3.985333 l 8.24667,0.0027 c 2.12,0 3.78533,-0.998666 4.572,-2.737333 0.43867,-0.968 0.424,-1.897333 0.41467,-2.576 l -0.003,-0.270667 V 22.1282 l 0.003,-0.664 c 0.003,-0.466667 0.005,-0.930667 -0.003,-1.394667 -0.0387,-2.524 -1.932,-4.532 -4.40267,-4.668 -0.508,-0.028 -1.06266,-0.04133 -1.69733,-0.04133 m 0,1.085333 c 0.61333,0 1.14933,0.01333 1.63733,0.04 1.89467,0.105334 3.34667,1.653334 3.37734,3.601334 0.007,0.457333 0.004,0.916 0.003,1.373333 l -0.003,0.668 v 45.501332 l 0.003,0.276 c 0.008,0.608 0.0187,1.365333 -0.31866,2.113333 -0.612,1.353334 -1.884,2.097334 -3.58134,2.097334 l -8.24533,-0.0027 h -0.003 c -3.164,0 -6.06266,1.764 -7.52,4.572 l -3.404,6.569333 -3.42133,-6.577333 c -1.45733,-2.804 -4.35467,-4.562667 -7.51467,-4.562667 h -10e-4 l -7.79067,0.0013 c -0.0853,0 -0.46933,0.008 -0.57333,0.008 -0.248,0 -0.57733,-0.0093 -0.92133,-0.08 -1.65067,-0.337334 -2.848,-1.806667 -2.848,-3.493334 V 21.502867 c 0,-0.16 -0.004,-0.322667 -0.008,-0.485334 -0.0107,-0.429333 -0.0213,-0.870666 0.0267,-1.334666 0.18667,-1.842667 1.72134,-3.189334 3.64534,-3.201334 l 0.79866,-0.0027 1.58134,0.0027 h 32.05333 c 0.49467,0 0.99067,-0.0093 1.48933,-0.01733 0.512,-0.0093 1.02667,-0.01867 1.53867,-0.01867"
       style="fill:#d6d7d6;fill-opacity:1;fill-rule:nonzero;stroke:none;stroke-width:1.33333325"
       id="path1292" />
    <path
       d="m 708.99372,64.580466 h -2.42667 l -0.80666,-2.425333 -0.808,2.425333 h -2.42667 l 1.99467,1.4 -0.75467,2.370667 1.99467,-1.454667 1.99333,1.454667 -0.75467,-2.370667 z"
       style="fill:#878a8e;fill-opacity:1;fill-rule:nonzero;stroke:none;stroke-width:1.33333325"
       id="path1296" />
    <path
       d="m 717.07492,64.580466 h -2.42667 l -0.80666,-2.425333 -0.808,2.425333 h -2.42667 l 1.99467,1.4 -0.75467,2.370667 1.99467,-1.454667 1.99333,1.454667 -0.75467,-2.370667 z"
       style="fill:#878a8e;fill-opacity:1;fill-rule:nonzero;stroke:none;stroke-width:1.33333325"
       id="path1300" />
    <path
       d="m 725.15585,64.580466 h -2.42533 l -0.808,-2.425333 -0.808,2.425333 h -2.42667 l 1.99467,1.4 -0.75467,2.370667 1.99467,-1.454667 1.99466,1.454667 -0.756,-2.370667 z"
       style="fill:#878a8e;fill-opacity:1;fill-rule:nonzero;stroke:none;stroke-width:1.33333325"
       id="path1304" />
    <path
       d="m 733.23705,64.580466 h -2.42533 l -0.808,-2.425333 -0.808,2.425333 h -2.42667 l 1.99467,1.4 -0.75467,2.370667 1.99467,-1.454667 1.99466,1.454667 -0.756,-2.370667 z"
       style="fill:#878a8e;fill-opacity:1;fill-rule:nonzero;stroke:none;stroke-width:1.33333325"
       id="path1308" />
    <path
       d="m 741.31811,64.580466 h -2.42533 l -0.808,-2.425333 -0.808,2.425333 h -2.42667 l 1.99467,1.4 -0.75467,2.370667 1.99467,-1.454667 1.99466,1.454667 -0.756,-2.370667 z"
       style="fill:#878a8e;fill-opacity:1;fill-rule:nonzero;stroke:none;stroke-width:1.33333325"
       id="path1312" />
    <g
       transform="matrix(1.3333333,0,0,-1.3333333,707.66598,59.927266)"
       id="g1314">
      <path
         id="path1316"
         style="fill:#ffffff;fill-opacity:1;fill-rule:nonzero;stroke:none"
         d="m 0,0 c -1.764,0 -3.196,1.434 -3.196,3.197 v 22.517 c 0,1.763 1.432,3.197 3.196,3.197 h 21.303 c 1.763,0 3.196,-1.434 3.196,-3.197 V 3.197 C 24.499,1.434 23.066,0 21.303,0 Z" />
    </g>
    <path
       d="m 704.77385,48.7274 v 6.937333 c 0,1.598667 1.29333,2.893333 2.892,2.893333 h 28.404 c 1.596,0 2.89467,-1.294666 2.89467,-2.893333 V 48.7274 Z m 23.364,4.105333 c -1.64,1.541334 -3.84533,2.489334 -6.27067,2.489334 -2.424,0 -4.62933,-0.946667 -6.27066,-2.489334 l -0.0867,-0.08 1.00133,-1 0.0813,0.07333 c 1.38666,1.290666 3.23866,2.082666 5.27466,2.082666 2.03734,0 3.88934,-0.792 5.27467,-2.082666 l 0.0813,-0.07333 1.00534,1 z"
       style="fill:#df271c;fill-opacity:1;fill-rule:nonzero;stroke:none;stroke-width:1.33333325"
       id="path1320" />
    <path
       d="m 738.96371,25.6414 c 0,-1.598667 -1.29733,-2.894667 -2.89467,-2.894667 h -28.40266 c -1.6,0 -2.892,1.296 -2.892,2.894667 v 21.653333 h 7.19333 c -1.81067,-0.794667 -3.07467,-2.602667 -3.076,-4.708 10e-4,-2.84 2.304,-5.144 5.14267,-5.144 0.86666,0 1.67733,0.212 2.396,0.589333 l 1.51333,-2.441333 -0.45867,-1.390667 c -0.33733,-0.072 -0.532,0.0053 -1.06,-0.07467 -0.54,-0.08133 -0.596,-0.217334 -0.488,-0.516 0.108,-0.298667 0.704,-0.164 1.22,-0.108 0.51467,0.05333 1.51334,-0.144 1.98,-0.162667 0.64934,-0.028 0.864,0.596 0.864,0.596 0,0 -0.352,0.05333 -0.704,0.05333 -0.348,0 -0.40666,0 -0.75866,0.137334 -0.0893,0.03333 -0.18,0.06 -0.27067,0.08 l 0.34533,1.050666 h 7.904 l -0.74133,-2.037333 h 2.764 c 0.74533,0.0093 1.34533,0.617333 1.34533,1.364 0,0.753333 -0.612,1.366667 -1.364,1.366667 h -0.092 v -0.726667 h 0.0893 c 0.35333,-0.0013 0.63866,-0.288 0.63866,-0.64 0,-0.350667 -0.28133,-0.633333 -0.62533,-0.64 h -1.7 l 1.33733,3.685333 c 0.43734,-0.12 0.89867,-0.185333 1.376,-0.185333 2.84,0 5.144,2.304 5.144,5.144 0,2.105333 -1.264,3.913333 -3.07466,4.708 h 7.34933 z"
       style="fill:#00a0df;fill-opacity:1;fill-rule:nonzero;stroke:none;stroke-width:1.33333325"
       id="path1324" />
    <path
       d="m 724.40132,42.586066 c 0,-2.105333 1.26,-3.909333 3.072,-4.708 l -0.52,-1.416 -5.9,6.234667 c -0.156,0.161333 -0.372,0.26 -0.60667,0.26 l -1.27866,0.0013 c -0.13867,1.945333 -1.36,3.588 -3.06134,4.337333 h 11.37067 c -1.81067,-0.796 -3.076,-2.604 -3.076,-4.709333"
       style="fill:#00a0df;fill-opacity:1;fill-rule:nonzero;stroke:none;stroke-width:1.33333325"
       id="path1328" />
    <path
       d="m 716.49878,39.325533 -1.792,2.886667 c 0,0 0.003,0.0013 0.003,0.004 h 3.396 c -0.0867,-0.984 -0.52134,-1.861334 -1.17867,-2.518667 -0.13333,-0.136 -0.27467,-0.257333 -0.428,-0.372"
       style="fill:#00a0df;fill-opacity:1;fill-rule:nonzero;stroke:none;stroke-width:1.33333325"
       id="path1332" />
    <path
       d="m 717.06038,38.423933 c 1.192,0.866667 1.996,2.234667 2.108,3.792 h 0.964 l -1.88533,-5.704 z"
       style="fill:#00a0df;fill-opacity:1;fill-rule:nonzero;stroke:none;stroke-width:1.33333325"
       id="path1336" />
    <path
       d="m 714.00532,43.381133 c -0.44,0 -0.796,-0.354667 -0.796,-0.794667 0,-0.438666 0.356,-0.796 0.796,-0.796 0.0267,0 0.0573,0.0027 0.0853,0.0053 l 1.77867,-2.862667 c -0.552,-0.278667 -1.17067,-0.433333 -1.83467,-0.433333 -1.12666,0.0027 -2.144,0.453333 -2.888,1.196 -0.74,0.742666 -1.196,1.761333 -1.196,2.890666 0,1.130667 0.456,2.146667 1.196,2.888 0.744,0.742667 1.76134,1.196 2.888,1.196 1.132,0 2.15067,-0.453333 2.892,-1.196 0.65734,-0.657333 1.092,-1.534666 1.17867,-2.518666 h -3.396 c -0.13333,0.256 -0.39733,0.425333 -0.704,0.425333"
       style="fill:#00a0df;fill-opacity:1;fill-rule:nonzero;stroke:none;stroke-width:1.33333325"
       id="path1340" />
    <path
       d="m 732.43278,39.694866 c -0.74133,-0.737333 -1.76,-1.196 -2.88933,-1.196 -0.348,0 -0.68534,0.04533 -1.012,0.126667 l 1.15733,3.176 c 0.38133,0.06 0.67333,0.386666 0.67333,0.784 0,0.441333 -0.35733,0.796 -0.79733,0.796 -0.43733,0 -0.79867,-0.354667 -0.79867,-0.796 0,-0.208 0.084,-0.397334 0.21734,-0.544 l -1.152,-3.166667 c -0.43734,0.204 -0.836,0.481333 -1.176,0.82 -0.74134,0.744 -1.19867,1.761333 -1.19867,2.890667 0,1.130666 0.45733,2.146666 1.19867,2.890666 0.74,0.741334 1.75866,1.194667 2.888,1.194667 1.12933,0 2.148,-0.453333 2.88933,-1.194667 0.74133,-0.744 1.19733,-1.76 1.19733,-2.890666 0,-1.129334 -0.456,-2.146667 -1.19733,-2.890667"
       style="fill:#00a0df;fill-opacity:1;fill-rule:nonzero;stroke:none;stroke-width:1.33333325"
       id="path1344" />
    <path
       d="m 720.81798,41.930066 10e-4,0.008 5.544,-5.941333 h -7.504 z"
       style="fill:#00a0df;fill-opacity:1;fill-rule:nonzero;stroke:none;stroke-width:1.33333325"
       id="path1348" />
  </g>
  <g
     id="text_pfblogo">
    <path
       id="path1234"
       style="fill:#4d4d4f;fill-opacity:1;fill-rule:nonzero;stroke:none;stroke-width:1.33333325"
       d="m 660.94545,97.02629 c -1.62667,0 -1.83467,1.354667 -1.83467,3.10667 0,1.75066 0.208,3.128 1.83467,3.128 1.62667,0 1.83467,-1.37734 1.83467,-3.128 0,-1.752003 -0.208,-3.10667 -1.83467,-3.10667 m 3.42,7.69333 c -0.60533,0.62534 -1.564,0.98 -2.628,0.98 -1.10533,0 -1.93867,-0.292 -2.62667,-1.084 v 4.94134 h -2.71066 V 94.711623 h 2.62666 v 1.021334 c 0.75067,-0.833334 1.54267,-1.145334 2.71067,-1.145334 1.064,0 2.02267,0.353334 2.628,0.98 1.04133,1.062667 1.12533,2.750667 1.12533,4.565337 0,1.81333 -0.084,3.52266 -1.12533,4.58666" />
    <path
       id="path1238"
       style="fill:#4d4d4f;fill-opacity:1;fill-rule:nonzero;stroke:none;stroke-width:1.33333325"
       d="m 670.96932,105.57442 c -2.23067,0 -3.16933,-1.564 -3.16933,-3.10667 V 90.729086 h 2.71066 v 11.572004 c 0,0.64666 0.27067,0.98 0.95867,0.98 h 1.04267 v 2.29333 z" />
    <path
       id="path1242"
       style="fill:#4d4d4f;fill-opacity:1;fill-rule:nonzero;stroke:none;stroke-width:1.33333325"
       d="m 680.31065,100.98776 h -2.064 c -1.084,0 -1.60533,0.43733 -1.60533,1.25067 0,0.75066 0.52133,1.23066 1.64666,1.23066 0.668,0 1.14667,-0.084 1.60534,-0.52133 0.31333,-0.272 0.41733,-0.688 0.41733,-1.376 z m 0.0627,4.58667 v -0.93734 c -0.72934,0.72934 -1.41734,1.04267 -2.66934,1.04267 -1.22933,0 -2.14666,-0.33467 -2.772,-0.96 -0.584,-0.604 -0.89733,-1.48 -0.89733,-2.44 0,-1.73067 1.18933,-3.148001 3.75333,-3.148001 h 2.52267 v -0.541333 c 0,-1.189334 -0.584,-1.710667 -2.02267,-1.710667 -0.98,0 -1.50133,0.272 -2.084,0.938667 l -1.71066,-1.688 c 1.064,-1.168 2.08533,-1.542667 3.89866,-1.542667 3.06534,0 4.62934,1.292 4.62934,3.836 v 7.150671 z" />
    <path
       id="path1246"
       style="fill:#4d4d4f;fill-opacity:1;fill-rule:nonzero;stroke:none;stroke-width:1.33333325"
       d="m 690.01572,105.69962 c -2.168,0 -4.85733,-1.168 -4.85733,-5.56667 0,-4.399997 2.68933,-5.545331 4.85733,-5.545331 1.50133,0 2.62667,0.458667 3.58667,1.458667 l -1.83467,1.834667 c -0.564,-0.605334 -1.04267,-0.854667 -1.752,-0.854667 -0.64667,0 -1.14667,0.229333 -1.54267,0.709333 -0.41733,0.521334 -0.60533,1.250667 -0.60533,2.397331 0,1.14667 0.188,1.89734 0.60533,2.41867 0.396,0.48 0.896,0.70933 1.54267,0.70933 0.70933,0 1.188,-0.25066 1.752,-0.856 l 1.83467,1.81467 c -0.96,1 -2.08534,1.48 -3.58667,1.48" />
    <path
       id="path1250"
       style="fill:#4d4d4f;fill-opacity:1;fill-rule:nonzero;stroke:none;stroke-width:1.33333325"
       d="m 701.29025,97.964556 c -0.292,-0.646667 -0.896,-1.126667 -1.81333,-1.126667 -0.91867,0 -1.52267,0.48 -1.81467,1.126667 -0.188,0.396 -0.22933,0.688 -0.24933,1.168 h 4.128 c -0.0213,-0.48 -0.0627,-0.772 -0.25067,-1.168 m -3.87733,3.022664 c 0,1.41867 0.83333,2.41867 2.376,2.41867 1.18933,0 1.772,-0.35467 2.46,-1.02133 l 1.648,1.60533 c -1.10534,1.12533 -2.16934,1.70933 -4.128,1.70933 -2.56534,0 -5.02534,-1.16666 -5.02534,-5.56666 0,-3.544004 1.91867,-5.545337 4.73334,-5.545337 3.02266,0 4.732,2.168 4.732,5.253333 v 1.146664 z" />
    <path
       id="path1254"
       style="fill:#4d4d4f;fill-opacity:1;fill-rule:nonzero;stroke:none;stroke-width:1.33333325"
       d="m 710.25065,105.69962 c -1.70933,0 -3.232,-0.188 -4.628,-1.564 l 1.772,-1.772 c 0.87467,0.89733 2.064,1.02133 2.89733,1.02133 0.93867,0 1.91867,-0.312 1.91867,-1.12533 0,-0.54133 -0.27067,-0.91733 -1.14667,-1.00133 l -1.752,-0.16667 c -1.91733,-0.18667 -3.12666,-1.04267 -3.12666,-3.044001 0,-2.272 1.98,-3.46 4.19066,-3.46 1.70934,0 3.10667,0.312 4.14934,1.270667 l -1.668,1.689333 c -0.62534,-0.562666 -1.564,-0.730666 -2.524,-0.730666 -1.08267,0 -1.54267,0.501333 -1.54267,1.042666 0,0.542667 0.31333,0.856 1.12667,0.938667 l 1.70933,0.166667 c 2.148,0.209333 3.232,1.334667 3.232,3.190667 0,2.39733 -2.044,3.544 -4.608,3.544" />
    <path
       id="path1258"
       style="fill:#878a8e;fill-opacity:1;fill-rule:nonzero;stroke:none;stroke-width:1.33333325"
       d="m 719.71705,98.718156 v 6.856004 h -2.19067 v -6.856004 h -0.90933 v -1.668 h 0.90933 v -1.094667 c 0,-1.246666 0.776,-2.512 2.56134,-2.512 h 1.24666 v 1.854667 h -0.86 c -0.52133,0 -0.75733,0.286667 -0.75733,0.792 v 0.96 h 1.61733 v 1.668 z" />
    <path
       id="path1262"
       style="fill:#878a8e;fill-opacity:1;fill-rule:nonzero;stroke:none;stroke-width:1.33333325"
       d="m 727.32585,99.054423 c -0.252,-0.252 -0.58933,-0.386667 -1.028,-0.386667 -0.42133,0 -0.75733,0.134667 -1.01067,0.386667 -0.45466,0.438667 -0.50533,1.230667 -0.50533,2.123997 0,0.90934 0.0507,1.70134 0.50533,2.13867 0.25334,0.25333 0.58934,0.388 1.01067,0.388 0.43867,0 0.776,-0.13467 1.028,-0.388 0.45467,-0.43733 0.50533,-1.22933 0.50533,-2.13867 0,-0.89333 -0.0507,-1.68533 -0.50533,-2.123997 m 1.70133,5.542667 c -0.556,0.57333 -1.432,1.07867 -2.72933,1.07867 -1.29733,0 -2.156,-0.50534 -2.712,-1.07867 -0.792,-0.84133 -0.99467,-1.836 -0.99467,-3.41867 0,-1.58533 0.20267,-2.56133 0.99467,-3.403997 0.556,-0.573333 1.41467,-1.078667 2.712,-1.078667 1.29733,0 2.17333,0.489334 2.72933,1.078667 0.792,0.842667 0.99467,1.818667 0.99467,3.403997 0,1.58267 -0.18533,2.59334 -0.99467,3.41867" />
    <path
       id="path1266"
       style="fill:#878a8e;fill-opacity:1;fill-rule:nonzero;stroke:none;stroke-width:1.33333325"
       d="m 736.71971,99.189356 c -0.33733,-0.337333 -0.62267,-0.522667 -1.16267,-0.522667 -0.67333,0 -1.41466,0.505334 -1.41466,1.617331 v 5.29067 h -2.18934 v -8.777334 h 2.13867 v 0.842667 c 0.42133,-0.506667 1.264,-0.944 2.20667,-0.944 0.86,0 1.46666,0.218666 2.07333,0.825333 z" />
    <path
       id="path1270"
       style="fill:#4d4d4f;fill-opacity:1;fill-rule:nonzero;stroke:none;stroke-width:1.33333325"
       d="m 744.40505,97.02629 c -1.62667,0 -1.83467,1.354667 -1.83467,3.10667 0,1.75066 0.208,3.128 1.83467,3.128 1.62667,0 1.83467,-1.37734 1.83467,-3.128 0,-1.752003 -0.208,-3.10667 -1.83467,-3.10667 m 3.42,7.69333 c -0.60533,0.62534 -1.564,0.98 -2.628,0.98 -1.168,0 -1.96,-0.312 -2.71067,-1.14666 v 1.02133 h -2.62666 V 90.728957 h 2.71066 v 4.941333 c 0.688,-0.792 1.52134,-1.082667 2.62667,-1.082667 1.084,0 2.02267,0.353334 2.628,0.98 1.04133,1.062667 1.12533,2.750667 1.12533,4.565337 0,1.83466 -0.084,3.52266 -1.12533,4.58666" />
    <path
       d="m 751.33065,95.024023 h 2.71066 v 10.549337 h -2.71066 z m -0.0413,-4.377333 h 2.77334 v 2.210666 h -2.77334 z"
       style="fill:#4d4d4f;fill-opacity:1;fill-rule:nonzero;stroke:none;stroke-width:1.33333325"
       id="path1272" />
    <path
       id="path1276"
       style="fill:#4d4d4f;fill-opacity:1;fill-rule:nonzero;stroke:none;stroke-width:1.33333325"
       d="m 763.26998,105.57442 -2.668,-4.524 -1.148,1.292 v 3.232 h -2.71067 V 90.729086 h 2.71067 v 8.424 l 3.60667,-4.441333 h 3.27466 l -3.87866,4.378666 4.17066,6.484001 z" />
    <path
       id="path1280"
       style="fill:#4d4d4f;fill-opacity:1;fill-rule:nonzero;stroke:none;stroke-width:1.33333325"
       d="m 773.71891,97.964556 c -0.292,-0.646667 -0.89733,-1.126667 -1.81467,-1.126667 -0.91733,0 -1.52133,0.48 -1.81333,1.126667 -0.188,0.396 -0.22933,0.688 -0.25067,1.168 h 4.128 c -0.02,-0.48 -0.0613,-0.772 -0.24933,-1.168 m -3.87867,3.022664 c 0,1.41867 0.83467,2.41867 2.37734,2.41867 1.188,0 1.772,-0.35467 2.46,-1.02133 l 1.648,1.60533 c -1.10534,1.12533 -2.16934,1.70933 -4.12934,1.70933 -2.564,0 -5.024,-1.16666 -5.024,-5.56666 0,-3.544004 1.91867,-5.545337 4.732,-5.545337 3.024,0 4.73334,2.168 4.73334,5.253333 v 1.146664 z" />
    <path
       id="path1284"
       style="fill:#4d4d4f;fill-opacity:1;fill-rule:nonzero;stroke:none;stroke-width:1.33333325"
       d="m 782.67931,105.69962 c -1.70933,0 -3.232,-0.188 -4.628,-1.564 l 1.77067,-1.772 c 0.87733,0.89733 2.06533,1.02133 2.89866,1.02133 0.93867,0 1.91867,-0.312 1.91867,-1.12533 0,-0.54133 -0.27067,-0.91733 -1.14667,-1.00133 l -1.752,-0.16667 c -1.91866,-0.18667 -3.12666,-1.04267 -3.12666,-3.044001 0,-2.272 1.98,-3.46 4.19066,-3.46 1.70934,0 3.10667,0.312 4.14934,1.270667 l -1.668,1.689333 c -0.62534,-0.562666 -1.564,-0.730666 -2.524,-0.730666 -1.084,0 -1.54267,0.501333 -1.54267,1.042666 0,0.542667 0.31333,0.856 1.12667,0.938667 l 1.70933,0.166667 c 2.148,0.209333 3.232,1.334667 3.232,3.190667 0,2.39733 -2.044,3.544 -4.608,3.544" />
  </g>
  <g
     id="footer_bar">
    <path
       style="fill:#009edb;fill-opacity:1;stroke:url(#linearGradient7909);stroke-width:17.49799919;stroke-linecap:square;stroke-linejoin:miter;stroke-miterlimit:4;stroke-dasharray:none;stroke-opacity:1"
       d="M 8.7489996,1047.1926 H 410.81297 807.25026"
       id="path7889" />
    <path
       id="path1487"
       d="m 416.24439,1056 18.51621,-17.2818 10.09809,0.1305 L 426.61347,1056 Z"
       style="fill:#ffffff;stroke:#ffffff;stroke-width:1px;stroke-linecap:butt;stroke-linejoin:miter;stroke-opacity:1" />
    <path
       style="fill:#ffffff;stroke:#ffffff;stroke-width:1px;stroke-linecap:butt;stroke-linejoin:miter;stroke-opacity:1"
       d="m 600.25436,1056 18.51621,-17.2818 10.09809,0.1305 L 610.62344,1056 Z"
       id="path1489" />
  </g>
  <g
     id="table_distances">
    <rect
       x="150"
       y="180"
       width="600"
       height="30"
       fill="#022c3f"
       id="rect228" />
    <rect
       x="150"
       y="210"
       width="600"
       height="30"
       fill="#049fda"
       id="rect230" />
    <rect
       x="150"
       y="240"
       width="600"
       height="20"
       fill="#d9d8d6"
       id="rect232" />
    <rect
       x="150"
       y="260"
       width="600"
       height="20"
       fill="#ffffff"
       id="rect234" />
    <rect
       x="150"
       y="280"
       width="600"
       height="20"
       fill="#d9d8d6"
       id="rect236" />
    <rect
       x="150"
       y="295"
       width="600"
       height="20"
       fill="#ffffff"
       id="rect238" />
    <rect
       x="150"
       y="315"
       width="600"
       height="20"
       fill="#d9d8d6"
       id="rect240" />
    <text
       x="150"
       y="175"
       font-size="18px"
       font-weight="bold"
       fill="white"
       id="text243"><tspan
         dx="300"
         dy="1.5em"
         id="name_location"
         text-anchor="middle">{{city}}, {{state}}</tspan></text>
    <text
       x="150"
       y="230"
       font-size="18px"
       text-anchor="left"
       id="text257"><tspan
         x="150"
         font-weight="bold"
         fill="black"
         id="tspan245">Type</tspan><tspan
         x="150"
         dy="1.5em"
         id="tspan247">Protected Bike Lane</tspan><tspan
         x="150"
         dy="1em"
         id="tspan249">Sharrows</tspan><tspan
         x="150"
         dy="1em"
         id="tspan251">Regular Bike Lane</tspan><tspan
         x="150"
         dy="1em"
         id="tspan253">Buffered Bike Lane</tspan></text>
    <text
       x="400"
       y="230"
       font-size="18px"
       text-anchor="middle"
       id="text271"><tspan
         x="400"
         font-weight="bold"
         fill="black"
         id="tspan259">Distance</tspan><tspan
         x="400"
         dy="1.5em"
         id="tspan261">{{track}}</tspan><tspan
         x="400"
         dy="1em"
         id="tspan263">{{sharrow}}</tspan><tspan
         x="400"
         dy="1em"
         id="tspan265">{{lane}}</tspan><tspan
         x="400"
         dy="1em"
         id="tspan267">{{buffered_lane}}</tspan></text>
  </g>
  <text
     xml:space="preserve"
     id="text2675"
     style="font-style:normal;font-weight:normal;font-size:64px;line-height:1.25;font-family:sans-serif;white-space:pre;shape-inside:url(#rect2677);fill:#000000;fill-opacity:1;stroke:none"
     transform="translate(4.9855916,-3.239142)"><tspan
       x="32.308594"
       y="86.029016"
       id="tspan598"><tspan
         style="font-family:Montserrat;-inkscape-font-specification:Montserrat"
         id="tspan594">{{city}}, </tspan><tspan
         style="font-weight:bold;font-family:Montserrat;-inkscape-font-specification:'Montserrat, Bold'"
         id="tspan596">{{state}}</tspan></tspan></text>
</svg>
